<svg width="20" height="21" viewBox="0 0 20 21" fill="none" xmlns="http://www.w3.org/2000/svg">
<path d="M8.80757 0.0393677C3.95121 0.0393677 0 3.99058 0 8.84694C0 13.7036 3.95121 17.6545 8.80757 17.6545C13.6642 17.6545 17.6151 13.7036 17.6151 8.84694C17.6151 3.99058 13.6642 0.0393677 8.80757 0.0393677ZM8.80757 16.0285C4.84769 16.0285 1.62601 12.8069 1.62601 8.84698C1.62601 4.8871 4.84769 1.66538 8.80757 1.66538C12.7675 1.66538 15.9891 4.88706 15.9891 8.84694C15.9891 12.8068 12.7675 16.0285 8.80757 16.0285Z" fill="#AEAEAE"/>
<path d="M19.7618 18.6516L15.1006 13.9903C14.7829 13.6727 13.9509 13.9903 13.9509 13.9903C13.9509 13.9903 13.6333 14.8226 13.9509 15.1399L18.6122 19.8012C18.771 19.96 18.9789 20.0394 19.187 20.0394C19.3949 20.0394 19.603 19.96 19.7618 19.8012C20.0794 19.4838 20.0794 18.9689 19.7618 18.6516Z" fill="#AEAEAE"/>
</svg>
